Coordinates
version=1
nRows=37
nColumns=38
inDegrees=no

Units are S.I. units (second, meters, Newtons, ...)
If the header above contains a line with 'inDegrees', this indicates whether rotational values are in degrees (yes) or radians (no).

endheader
time	pelvis_tilt	pelvis_list	pelvis_rotation	pelvis_tx	pelvis_ty	pelvis_tz	hip_flexion_r	hip_adduction_r	hip_rotation_r	knee_angle_r	ankle_angle_r	subtalar_angle_r	mtp_angle_r	hip_flexion_l	hip_adduction_l	hip_rotation_l	knee_angle_l	ankle_angle_l	subtalar_angle_l	mtp_angle_l	lumbar_extension	lumbar_bending	lumbar_rotation	arm_flex_r	arm_add_r	arm_rot_r	elbow_flex_r	pro_sup_r	wrist_flex_r	wrist_dev_r	arm_flex_l	arm_add_l	arm_rot_l	elbow_flex_l	pro_sup_l	wrist_flex_l	wrist_dev_l
0	1.05339	1.427	0.626384	0.661553	-0.592089	1.01147	0.423573	0.0944281	-0.246183	0.247353	-0.191965	0	0	-0.181713	-0.236005	-0.216106	0.586797	-0.323155	0	0	-0.128437	0.173271	-0.118693	-0.0854278	-0.238716	0.15595	0.463499	1.5708	0	0	0.046027	-0.344507	0.311725	0.912024	1.32074	0	0
0.01	0.973887	1.4161	0.706844	0.663039	-0.579168	1.01133	0.440846	0.0979928	-0.225877	0.275502	-0.171112	0	0	-0.137153	-0.23844	-0.15759	0.648293	-0.35294	0	0	-0.102594	0.173576	-0.118751	-0.0850976	-0.237364	0.163268	0.455101	1.5708	0	0	0.0454926	-0.341168	0.329484	0.884039	1.30254	0	0
0.02	0.940081	1.40714	0.745286	0.664111	-0.565391	1.01159	0.44687	0.101808	-0.222288	0.295677	-0.152323	0	0	-0.0976821	-0.24319	-0.106462	0.707203	-0.389391	0	0	-0.0872563	0.17695	-0.121189	-0.086596	-0.238247	0.170443	0.455623	1.5708	0	0	0.042366	-0.339095	0.344405	0.864083	1.28434	0	0
0.03	0.931562	1.40078	0.761242	0.664846	-0.551624	1.01213	0.44461	0.104827	-0.227788	0.309219	-0.135045	0	0	-0.0606614	-0.248227	-0.0598924	0.764977	-0.43189	0	0	-0.0780427	0.180742	-0.125307	-0.0880843	-0.240238	0.179004	0.460429	1.5708	0	0	0.0392337	-0.338274	0.35941	0.847859	1.26591	0	0
0.04	0.939435	1.39664	0.762788	0.665244	-0.537988	1.01297	0.434444	0.107104	-0.236358	0.314305	-0.123992	0	0	-0.0256215	-0.252448	-0.0174398	0.82011	-0.468543	0	0	-0.0737329	0.184069	-0.130738	-0.0890071	-0.242127	0.185639	0.467194	1.5708	0	0	0.0349587	-0.336235	0.367407	0.834086	1.25373	0	0
0.05	0.953948	1.39525	0.759774	0.665498	-0.524334	1.01401	0.419837	0.109728	-0.245603	0.314126	-0.108411	0	0	0.00737396	-0.254535	0.0236471	0.872134	-0.504613	0	0	-0.0707191	0.186511	-0.134965	-0.0925291	-0.245962	0.195514	0.47952	1.5708	0	0	0.0425992	-0.349309	0.425574	0.820734	1.19415	0	0
0.06	0.972657	1.39596	0.751787	0.665643	-0.510796	1.01546	0.401333	0.111691	-0.254151	0.310387	-0.0990338	0	0	0.0372125	-0.254082	0.0604426	0.920411	-0.511196	0	0	-0.0711586	0.187025	-0.138581	-0.0935776	-0.249296	0.206224	0.490203	1.5708	0	0	0.0433718	-0.351149	0.448855	0.807332	1.17386	0	0
0.07	0.98815	1.39747	0.745365	0.665882	-0.497548	1.01728	0.382228	0.113263	-0.265209	0.305437	-0.0925909	0	0	0.0655728	-0.251413	0.0928308	0.964594	-0.494919	0	0	-0.072834	0.186358	-0.139659	-0.0930696	-0.253129	0.218943	0.500659	1.5708	0	0	0.0450733	-0.352085	0.471116	0.793167	1.15881	0	0
0.08	1.00403	1.39997	0.736878	0.66604	-0.484196	1.01949	0.360638	0.114883	-0.27597	0.296701	-0.0891333	0	0	0.0909048	-0.247413	0.118476	1.00385	-0.463243	0	0	-0.0752332	0.18512	-0.138547	-0.0929365	-0.258292	0.232617	0.512719	1.5708	0	0	0.0460288	-0.35088	0.489194	0.778285	1.14626	0	0
0.09	1.02193	1.40375	0.723534	0.666424	-0.470924	1.02201	0.337512	0.116997	-0.282603	0.286689	-0.0874209	0	0	0.113292	-0.242826	0.135685	1.03981	-0.421213	0	0	-0.0795582	0.182657	-0.134299	-0.0918173	-0.263422	0.245353	0.525082	1.5708	0	0	0.0464063	-0.348933	0.503727	0.764006	1.13908	0	0
0.1	1.0418	1.40882	0.706306	0.667014	-0.45766	1.02477	0.314552	0.118496	-0.287318	0.280608	-0.0855902	0	0	0.133314	-0.237836	0.145443	1.07203	-0.372325	0	0	-0.0849197	0.178718	-0.128552	-0.0896068	-0.268663	0.259818	0.537037	1.5708	0	0	0.0448983	-0.3472	0.514446	0.751215	1.13778	0	0
0.11	1.05798	1.41454	0.690254	0.667805	-0.444412	1.02768	0.290546	0.120069	-0.290524	0.271899	-0.0854709	0	0	0.151895	-0.232339	0.1485	1.09883	-0.327291	0	0	-0.0898973	0.173215	-0.121622	-0.0854257	-0.275826	0.283433	0.548003	1.5708	0	0	0.0405139	-0.34528	0.519432	0.739994	1.14106	0	0
0.12	1.07358	1.42111	0.671461	0.668807	-0.431318	1.03077	0.265277	0.122125	-0.288145	0.260785	-0.0876126	0	0	0.16835	-0.226902	0.144485	1.11942	-0.280257	0	0	-0.0956341	0.166397	-0.113376	-0.0717789	-0.301718	0.380479	0.563697	1.48276	0	0	0.0326208	-0.342263	0.513943	0.731007	1.14873	0	0
0.13	1.08549	1.429	0.654543	0.669958	-0.41837	1.034	0.239195	0.122958	-0.282406	0.24747	-0.0921153	0	0	0.183394	-0.22095	0.134823	1.13322	-0.239204	0	0	-0.102803	0.157608	-0.100965	-0.0784846	-0.285029	0.304208	0.573619	1.5708	0	0	0.0296185	-0.344052	0.525641	0.723593	1.14131	0	0
0.14	1.09828	1.43761	0.637183	0.670999	-0.405531	1.03727	0.214141	0.121937	-0.278678	0.238179	-0.0949067	0	0	0.197661	-0.215057	0.122469	1.14041	-0.210271	0	0	-0.109718	0.147788	-0.0912344	-0.0759034	-0.28654	0.302282	0.586989	1.5708	0	0	0.0225913	-0.345232	0.527246	0.71866	1.13986	0	0
0.15	1.11572	1.44645	0.615019	0.671969	-0.392592	1.04056	0.188159	0.120427	-0.275947	0.227639	-0.100079	0	0	0.210129	-0.209805	0.108006	1.14029	-0.179508	0	0	-0.116494	0.137825	-0.0824777	-0.0725604	-0.289843	0.306771	0.600353	1.5708	0	0	0.0136373	-0.346706	0.526134	0.715222	1.13821	0	0
0.16	1.13328	1.45498	0.59206	0.672842	-0.379674	1.0438	0.162627	0.118376	-0.277334	0.216926	-0.106419	0	0	0.221996	-0.205869	0.089504	1.13404	-0.153271	0	0	-0.122668	0.128039	-0.0740482	-0.0693336	-0.293893	0.311196	0.614521	1.5708	0	0	0.00373561	-0.347405	0.522696	0.71171	1.13713	0	0
0.17	1.15477	1.46316	0.565537	0.673629	-0.366934	1.047	0.137064	0.11609	-0.281422	0.205393	-0.11294	0	0	0.233824	-0.203845	0.0667839	1.12264	-0.133666	0	0	-0.129198	0.118757	-0.0667562	-0.0657902	-0.297755	0.31366	0.629123	1.5708	0	0	-0.00679535	-0.348108	0.516986	0.70921	1.13563	0	0
0.18	1.19703	1.47147	0.516807	0.674497	-0.35427	1.05024	0.109213	0.114742	-0.284514	0.191855	-0.123491	0	0	0.24298	-0.205566	0.0340724	1.1058	-0.113386	0	0	-0.13832	0.110261	-0.0583671	-0.0629502	-0.301992	0.312687	0.646701	1.5708	0	0	-0.0177138	-0.348637	0.508664	0.708066	1.1336	0	0
0.19	1.26085	1.47932	0.443667	0.675491	-0.341339	1.05338	0.0795662	0.114177	-0.284625	0.177644	-0.140884	0	0	0.248916	-0.212279	-0.0149113	1.08306	-0.0940064	0	0	-0.148534	0.10227	-0.0492246	-0.0571589	-0.312305	0.330399	0.665067	1.5708	0	0	-0.0362775	-0.341371	0.469367	0.707335	1.15762	0	0
0.2	1.34339	1.4867	0.352376	0.67642	-0.328379	1.05641	0.0502936	0.113018	-0.286247	0.166459	-0.154754	0	0	0.25365	-0.222124	-0.0742925	1.05463	-0.0839974	0	0	-0.15899	0.0949482	-0.0372556	-0.0611933	-0.309256	0.297686	0.68547	1.5708	0	0	-0.0419249	-0.346954	0.484672	0.70631	1.13203	0	0
0.21	1.41163	1.49204	0.27469	0.677253	-0.315495	1.05903	0.024059	0.112024	-0.285446	0.155213	-0.164725	0	0	0.259073	-0.23423	-0.133815	1.0229	-0.0786428	0	0	-0.166458	0.0884726	-0.0268496	-0.0611317	-0.313308	0.289383	0.704943	1.5708	0	0	-0.0528491	-0.346426	0.478316	0.704281	1.12539	0	0
0.22	1.46929	1.49621	0.206085	0.678062	-0.302589	1.06129	-0.000360571	0.111028	-0.283635	0.143552	-0.174507	0	0	0.263115	-0.247487	-0.194428	0.987727	-0.0753709	0	0	-0.171987	0.082574	-0.0156525	-0.0619038	-0.317405	0.27933	0.725153	1.5708	0	0	-0.0632886	-0.34548	0.474172	0.701149	1.11864	0	0
0.23	1.50484	1.50052	0.162876	0.678522	-0.290076	1.06319	-0.0212121	0.108123	-0.286463	0.134641	-0.175866	0	0	0.268789	-0.253065	-0.239166	0.947894	-0.0731923	0	0	-0.175695	0.0762528	-0.00872442	-0.0600372	-0.321582	0.27343	0.74266	1.5708	0	0	-0.0752309	-0.341701	0.459146	0.697344	1.12237	0	0
0.24	1.55714	1.50516	0.103599	0.678827	-0.2778	1.06496	-0.0423975	0.104301	-0.289815	0.126373	-0.183605	0	0	0.272098	-0.253624	-0.274981	0.902619	-0.0719989	0	0	-0.181159	0.0698802	-0.00212319	-0.0585419	-0.324478	0.262143	0.760799	1.5708	0	0	-0.0833595	-0.34125	0.457092	0.693933	1.11546	0	0
0.25	1.60382	1.50964	0.0502576	0.679017	-0.265513	1.06635	-0.0626457	0.100142	-0.29334	0.117756	-0.19121	0	0	0.27483	-0.251981	-0.308559	0.853343	-0.0734888	0	0	-0.185655	0.0635932	0.00395386	-0.0575243	-0.326682	0.248784	0.77887	1.5708	0	0	-0.0913663	-0.340477	0.454799	0.690589	1.10807	0	0
0.26	1.63768	1.51343	0.00960882	0.679175	-0.253174	1.06735	-0.0811563	0.0961689	-0.296711	0.110197	-0.197805	0	0	0.277556	-0.248119	-0.337038	0.800038	-0.0774412	0	0	-0.188634	0.0580398	0.00979626	-0.0569544	-0.328106	0.233439	0.796771	1.5708	0	0	-0.0992909	-0.339287	0.452725	0.686769	1.1008	0	0
0.27	1.6842	1.51666	-0.0447619	0.679303	-0.240947	1.06809	-0.0995178	0.0922159	-0.297825	0.103952	-0.207358	0	0	0.278504	-0.243453	-0.365319	0.743894	-0.0889169	0	0	-0.192986	0.0530249	0.0160422	-0.056488	-0.328449	0.21405	0.815363	1.5708	0	0	-0.109816	-0.33238	0.43147	0.68215	1.11289	0	0
0.28	1.67308	1.5197	-0.0397385	0.679277	-0.228749	1.06814	-0.11337	0.0881844	-0.301108	0.100302	-0.210481	0	0	0.28273	-0.236553	-0.388715	0.684164	-0.104871	0	0	-0.192885	0.0489509	0.0220411	-0.0578853	-0.326945	0.190316	0.833419	1.5708	0	0	-0.109985	-0.339596	0.466106	0.677677	1.07827	0	0
0.29	1.63523	1.52216	-0.00673139	0.679134	-0.216492	1.06774	-0.1257	0.0847331	-0.304844	0.0973005	-0.211231	0	0	0.28762	-0.227643	-0.405393	0.621818	-0.118626	0	0	-0.191473	0.0455331	0.0249305	-0.0566047	-0.327245	0.175346	0.848896	1.5708	0	0	-0.117198	-0.338143	0.466088	0.673035	1.07575	0	0
0.3	1.57693	1.52413	0.0474226	0.678837	-0.204295	1.06693	-0.13688	0.0814312	-0.307544	0.0947563	-0.210172	0	0	0.292528	-0.216668	-0.416096	0.556184	-0.133867	0	0	-0.189418	0.042865	0.0271949	-0.0553859	-0.327337	0.159843	0.864049	1.5708	0	0	-0.123749	-0.336269	0.46609	0.668206	1.07337	0	0
0.31	1.4924	1.5254	0.129166	0.678324	-0.19221	1.06568	-0.146517	0.0786538	-0.309992	0.0930847	-0.207264	0	0	0.298212	-0.203357	-0.41849	0.487932	-0.150652	0	0	-0.186516	0.0410434	0.0284846	-0.0543002	-0.327449	0.144164	0.878915	1.5708	0	0	-0.129501	-0.333736	0.465588	0.663045	1.07191	0	0
0.32	1.3638	1.52508	0.255529	0.677763	-0.180099	1.0639	-0.15383	0.0768796	-0.311121	0.0918636	-0.20271	0	0	0.305558	-0.189104	-0.41276	0.4182	-0.168316	0	0	-0.181447	0.0402011	0.0291871	-0.0533199	-0.326967	0.128075	0.893145	1.5708	0	0	-0.13533	-0.330544	0.463614	0.657528	1.07252	0	0
0.33	1.22253	1.52219	0.394721	0.677198	-0.167929	1.06161	-0.159776	0.0768078	-0.310432	0.0902151	-0.201564	0	0	0.313627	-0.175238	-0.397976	0.347623	-0.177598	0	0	-0.174801	0.0409553	0.0294037	-0.051805	-0.327906	0.116504	0.906675	1.5708	0	0	-0.141343	-0.327182	0.461237	0.652372	1.07342	0	0
0.34	1.07883	1.51631	0.537434	0.676525	-0.155751	1.05876	-0.163127	0.0782205	-0.309549	0.0894244	-0.195171	0	0	0.322522	-0.161251	-0.369954	0.274596	-0.197899	0	0	-0.165798	0.0433844	0.0292159	-0.0517585	-0.326475	0.0991826	0.92	1.5708	0	0	-0.145277	-0.325743	0.468354	0.646981	1.06707	0	0
0.35	0.960688	1.50773	0.655514	0.675705	-0.143612	1.05542	-0.16438	0.0809444	-0.309205	0.0902383	-0.185956	0	0	0.331271	-0.148376	-0.332455	0.200661	-0.221781	0	0	-0.155667	0.0473146	0.026736	-0.0496381	-0.329452	0.0930433	0.932467	1.5708	0	0	-0.155952	-0.314039	0.435617	0.640463	1.09841	0	0
0.36	0.88072	1.49764	0.735549	0.674886	-0.131417	1.05166	-0.165064	0.0848535	-0.309339	0.092498	-0.174625	0	0	0.339121	-0.137981	-0.289465	0.129123	-0.244058	0	0	-0.14507	0.0526173	0.0271801	-0.0527803	-0.326283	0.0698907	0.947386	1.5708	0	0	-0.150965	-0.323792	0.490344	0.636806	1.04927	0	0
